<svg xmlns="http://www.w3.org/2000/svg" width="16" height="16" fill="none"  xmlns:v="https://vecta.io/nano"><g clip-path="url(#A)"><path fill-rule="evenodd" d="M5.775 1.329c.907-.033 1.809.141 2.638.507s1.566.916 2.152 1.608c.473.559.84 1.198 1.082 1.886h.346a4 4 0 0 1 3.814 2.79c.257.81.249 1.681-.023 2.486a4 4 0 0 1-1.488 1.992c-.301.212-.717.139-.928-.162s-.139-.717.162-.928c.463-.326.811-.791.992-1.328s.187-1.117.016-1.657-.51-1.012-.967-1.346-1.009-.515-1.576-.514h-.84c-.304 0-.57-.206-.645-.501-.175-.683-.503-1.318-.96-1.856s-1.028-.966-1.674-1.251-1.347-.42-2.052-.395-1.395.21-2.018.541-1.163.798-1.58 1.368-.698 1.226-.824 1.92-.093 1.408.097 2.087.532 1.307.999 1.835c.244.275.218.697-.057.941s-.697.218-.941-.057C.899 10.617.46 9.81.215 8.936S-.072 7.145.09 6.253.614 4.516 1.149 3.784 2.379 2.45 3.18 2.025s1.689-.663 2.595-.696zm2.22 6c.368 0 .666.298.666.666v4.388l1.528-1.528c.26-.26.682-.26.942 0s.26.682 0 .942l-2.665 2.665c-.26.26-.682.26-.942 0l-2.665-2.665c-.26-.26-.26-.682 0-.942s.682-.26.942 0l1.528 1.528V7.996c0-.368.298-.666.666-.666z" fill="#5c7080"/></g><defs><clipPath id="A"><path fill="#fff" d="M0 0h16v16H0z"/></clipPath></defs></svg>