<svg viewBox="0 0 113 21" fill="none" xmlns="http://www.w3.org/2000/svg">
<g clip-path="url(#clip0_827_1502)">
<path d="M19.8095 10.0903C20.2983 10.5791 20.9106 10.8235 21.6489 10.8235C22.1049 10.8235 22.5358 10.7278 22.9414 10.5363C23.3471 10.3448 23.6394 10.1483 23.8208 9.95175L24.0904 9.66199L25.5014 11.2065C25.4686 11.2569 25.4183 11.3224 25.3553 11.4031C25.2897 11.4837 25.1411 11.6298 24.9042 11.8364C24.6674 12.0431 24.4129 12.227 24.1383 12.3857C23.8636 12.5445 23.5033 12.6881 23.0523 12.8166C22.6013 12.9451 22.1352 13.0081 21.6489 13.0081C20.253 13.0081 19.0662 12.5419 18.0936 11.6046C17.1211 10.6698 16.6348 9.55112 16.6348 8.25099C16.6348 6.95085 17.1211 5.83213 18.0936 4.89734C19.0662 3.96255 20.2505 3.4939 21.6489 3.4939C22.1301 3.4939 22.5887 3.55689 23.0221 3.68287C23.4554 3.80885 23.8158 3.96003 24.098 4.13389C24.3802 4.31026 24.6271 4.48412 24.8387 4.66049C25.0504 4.83687 25.2016 4.98553 25.2948 5.11151L25.4384 5.29292L23.9569 6.83747C23.9317 6.80471 23.8989 6.76188 23.8561 6.70896C23.8132 6.65605 23.7175 6.56534 23.5663 6.4318C23.4151 6.30078 23.2589 6.18236 23.0951 6.08157C22.9314 5.97827 22.7172 5.88756 22.4526 5.80441C22.1881 5.72378 21.9185 5.68095 21.6463 5.68095C20.9106 5.68095 20.2983 5.92535 19.807 6.41165C19.3182 6.89794 19.0738 7.51021 19.0738 8.24595C19.0738 8.98168 19.3182 9.59396 19.807 10.0853L19.8095 10.0903Z" fill="white"/>
<path d="M26.8141 5.94299V3.75342H33.8162V5.94299L29.8327 10.5665H33.9498V12.7511H26.6201V10.5665L30.6037 5.94299H26.8141Z" fill="white"/>
<path d="M38.5758 5.05367C39.4677 4.16424 40.5487 3.71826 41.8186 3.71826C42.2696 3.71826 42.7029 3.78125 43.1162 3.90724C43.5294 4.03322 43.8721 4.18692 44.1442 4.36329C44.4163 4.54219 44.6532 4.72108 44.8598 4.9025C45.0639 5.08391 45.2125 5.24013 45.3032 5.36863L45.4468 5.56012L44.8069 6.13208C44.7817 6.08925 44.7439 6.03634 44.696 5.96831C44.6456 5.90027 44.5297 5.77933 44.3483 5.60548C44.1669 5.43162 43.9678 5.27792 43.7536 5.14186C43.5395 5.0058 43.2598 4.88486 42.9121 4.77147C42.5644 4.65809 42.199 4.60266 41.8186 4.60266C40.8006 4.60266 39.9389 4.95793 39.241 5.66595C38.543 6.37397 38.1903 7.2508 38.1903 8.29394C38.1903 9.33707 38.5405 10.2139 39.241 10.9219C39.9414 11.6299 40.8006 11.9852 41.8186 11.9852C42.199 11.9852 42.5644 11.9323 42.9121 11.8265C43.2598 11.7207 43.5495 11.5947 43.7788 11.4435C44.0081 11.2948 44.2097 11.1462 44.3835 11C44.5574 10.8539 44.6809 10.7229 44.7565 10.612L44.8749 10.4558L45.5073 11.0328C45.4746 11.0832 45.4242 11.1487 45.3561 11.2293C45.2881 11.31 45.1369 11.4561 44.9026 11.6677C44.6683 11.8794 44.4213 12.0684 44.1593 12.2321C43.8973 12.3984 43.5546 12.5471 43.1313 12.6756C42.708 12.8066 42.2696 12.8721 41.8186 12.8721C40.5461 12.8721 39.4652 12.4262 38.5758 11.5367C37.6838 10.6473 37.2404 9.56636 37.2404 8.29394C37.2404 7.02152 37.6863 5.94059 38.5758 5.05115V5.05367Z" fill="white"/>
<path d="M53.3636 11.8618V12.7513H47.1249V3.8418H53.2326V4.73627H48.0824V7.66158H52.2146V8.55101H48.0824V11.8618H53.3636Z" fill="white"/>
<path d="M55.0342 12.7513V3.8418H55.9916V11.8618H60.5698V12.7513H55.0342Z" fill="white"/>
<path d="M61.9758 12.7513V3.8418H62.9332V11.8618H67.5114V12.7513H61.9758Z" fill="white"/>
<path d="M75.0779 6.38635L74.5135 5.83203L72.5659 7.77216L70.6182 5.83203L70.0538 6.38635L72.0065 8.33152L70.0538 10.2767L70.6131 10.836L72.5659 8.88836L74.5236 10.836L75.0779 10.2767L73.1277 8.33152L75.0779 6.38635Z" fill="white"/>
<path d="M18.7966 16.4626C19.3963 16.4626 19.9128 16.6743 20.3437 17.1026C20.7745 17.5285 20.9887 18.0349 20.9887 18.6245C20.9887 19.2141 20.7745 19.7205 20.3437 20.1464C19.9128 20.5722 19.3988 20.7864 18.7966 20.7864H17.2823V16.4626H18.7966ZM17.9626 17.08V20.1665H18.7966C19.2174 20.1665 19.5726 20.0179 19.8674 19.718C20.1622 19.4207 20.3084 19.0554 20.3084 18.622C20.3084 18.1886 20.1622 17.8258 19.8674 17.5259C19.5752 17.2286 19.2174 17.0774 18.7966 17.0774H17.9626V17.08Z" fill="#8282FF"/>
<path d="M22.2334 16.46H22.9112V20.7837H22.2334V16.46Z" fill="#8282FF"/>
<path d="M26.3152 19.214C26.2321 19.1233 26.1212 19.0553 25.9877 19.0024C25.8541 18.952 25.7055 18.9041 25.5442 18.8638C25.3804 18.8235 25.2192 18.7706 25.0554 18.7126C24.8916 18.6521 24.7455 18.5791 24.6119 18.4959C24.4784 18.4128 24.37 18.2918 24.2844 18.1356C24.1987 17.9794 24.1584 17.7929 24.1584 17.5737C24.1584 17.2411 24.2869 16.9615 24.5414 16.7372C24.7959 16.513 25.1411 16.4021 25.5795 16.4021C25.7407 16.4021 25.8944 16.4223 26.0431 16.4601C26.1917 16.5004 26.3127 16.5457 26.411 16.5986C26.5092 16.6515 26.5949 16.7045 26.668 16.7574C26.741 16.8103 26.7939 16.8556 26.8292 16.8934L26.8771 16.9539L26.4462 17.3873C26.4462 17.3873 26.4261 17.3646 26.411 17.347C26.3958 17.3268 26.3606 17.2966 26.3077 17.2563C26.2547 17.2159 26.1968 17.1782 26.1363 17.1454C26.0758 17.1126 25.9952 17.0824 25.8944 17.0572C25.7936 17.032 25.6903 17.0169 25.5795 17.0169C25.3552 17.0169 25.1763 17.0723 25.0403 17.1832C24.9042 17.2941 24.8362 17.4226 24.8362 17.5712C24.8362 17.7048 24.879 17.8156 24.9622 17.9063C25.0453 17.997 25.1562 18.0676 25.2897 18.118C25.4233 18.1684 25.5719 18.2162 25.7332 18.2566C25.8969 18.2969 26.0582 18.3473 26.222 18.4077C26.3858 18.4682 26.5319 18.5388 26.6654 18.6244C26.799 18.7101 26.9073 18.8285 26.993 18.9873C27.0787 19.146 27.119 19.3299 27.119 19.5491C27.119 19.9296 26.9829 20.242 26.7083 20.4839C26.4362 20.7258 26.0582 20.8468 25.5744 20.8468C25.3779 20.8468 25.1889 20.8241 25.0126 20.7762C24.8362 20.7283 24.6875 20.6729 24.5741 20.6074C24.4582 20.5419 24.36 20.4764 24.2768 20.4109C24.1937 20.3453 24.1307 20.2899 24.0929 20.2446L24.0324 20.169L24.4633 19.7381C24.4633 19.7381 24.4859 19.7683 24.5036 19.791C24.5237 19.8137 24.5666 19.854 24.6321 19.912C24.7001 19.9699 24.7732 20.0203 24.8513 20.0631C24.9294 20.106 25.0327 20.1463 25.1637 20.1816C25.2922 20.2168 25.4308 20.2345 25.5744 20.2345C25.8415 20.2345 26.0532 20.169 26.2069 20.0379C26.3606 19.9069 26.4387 19.7457 26.4387 19.5517C26.4387 19.4181 26.3958 19.3072 26.3127 19.2191L26.3152 19.214Z" fill="#8282FF"/>
<path d="M30.9715 16.4878C31.1731 16.5457 31.3394 16.6138 31.4704 16.6969C31.6014 16.78 31.7173 16.8607 31.8156 16.9413C31.9139 17.0219 31.9869 17.09 32.0323 17.1504L32.0978 17.2336L31.6669 17.667C31.6543 17.6518 31.6367 17.6292 31.614 17.5989C31.5914 17.5687 31.5384 17.5158 31.4553 17.4402C31.3721 17.3646 31.284 17.2991 31.1907 17.2437C31.095 17.1882 30.974 17.1378 30.8203 17.09C30.6692 17.0421 30.5079 17.0194 30.3391 17.0194C29.8906 17.0194 29.5101 17.1756 29.2002 17.4855C28.8878 17.7955 28.7341 18.1759 28.7341 18.6244C28.7341 19.0729 28.8903 19.4534 29.2002 19.7633C29.5101 20.0757 29.8906 20.2294 30.3416 20.2294C30.5104 20.2294 30.6717 20.2068 30.8254 20.1589C30.9791 20.111 31.1076 20.0556 31.2084 19.9876C31.3092 19.922 31.3999 19.8565 31.4755 19.791C31.5536 19.7255 31.6115 19.6701 31.6493 19.6247L31.6972 19.5491L32.1306 19.9825C32.1154 20.0077 32.0902 20.0379 32.0575 20.0783C32.0247 20.1186 31.9517 20.1866 31.8383 20.2849C31.7249 20.3831 31.604 20.4713 31.4755 20.5469C31.3469 20.6225 31.1807 20.6931 30.974 20.7535C30.7674 20.814 30.5558 20.8468 30.3391 20.8468C29.6915 20.8468 29.1498 20.6326 28.7114 20.2017C28.273 19.7709 28.0538 19.2468 28.0538 18.6244C28.0538 18.0021 28.273 17.478 28.7114 17.0471C29.1498 16.6163 29.6915 16.4021 30.3391 16.4021C30.5583 16.4021 30.7674 16.4298 30.969 16.4878H30.9715Z" fill="#8282FF"/>
<path d="M33.539 17.0471C33.9775 16.6163 34.5192 16.4021 35.1642 16.4021C35.8092 16.4021 36.3535 16.6163 36.7894 17.0471C37.2253 17.478 37.447 18.0021 37.447 18.6244C37.447 19.2468 37.2278 19.7709 36.7894 20.2017C36.351 20.6326 35.8092 20.8468 35.1642 20.8468C34.5192 20.8468 33.9775 20.6326 33.539 20.2017C33.1006 19.7709 32.8814 19.2468 32.8814 18.6244C32.8814 18.0021 33.1006 17.478 33.539 17.0471ZM34.0253 19.7633C34.3352 20.0757 34.7157 20.2294 35.1642 20.2294C35.6127 20.2294 35.9932 20.0732 36.3031 19.7633C36.613 19.4509 36.7692 19.0729 36.7692 18.6244C36.7692 18.1759 36.613 17.798 36.3031 17.4855C35.9932 17.1756 35.6127 17.0194 35.1642 17.0194C34.7157 17.0194 34.3352 17.1756 34.0253 17.4855C33.7154 17.7955 33.5592 18.1759 33.5592 18.6244C33.5592 19.0729 33.7154 19.4534 34.0253 19.7633Z" fill="#8282FF"/>
<path d="M38.0164 16.46H38.727L40.0523 19.9169L41.3827 16.46H42.0907L40.3925 20.7837H39.7147L38.0139 16.46H38.0164Z" fill="#8282FF"/>
<path d="M46.2683 20.1664V20.7837H43.1515V16.46H46.2078V17.0773H43.8293V18.2187H45.714V18.836H43.8293V20.1613H46.2683V20.1664Z" fill="#8282FF"/>
<path d="M47.4525 16.46H49.2742C49.6748 16.46 50.0049 16.5885 50.2695 16.8429C50.534 17.0974 50.6651 17.4149 50.6651 17.7903C50.6651 17.9667 50.6348 18.133 50.5744 18.2867C50.5139 18.4404 50.4408 18.5613 50.3577 18.6495C50.2745 18.7377 50.1888 18.8158 50.1057 18.8813C50.0226 18.9469 49.9495 18.9922 49.889 19.0174L49.8008 19.0577L50.7885 20.7837H50.0478L49.123 19.1157H48.1353V20.7837H47.4576V16.46H47.4525ZM49.7781 17.2814C49.6421 17.1453 49.4733 17.0773 49.2742 17.0773H48.1328V18.4958H49.2742C49.4758 18.4958 49.6446 18.4278 49.7781 18.2917C49.9142 18.1557 49.9822 17.9869 49.9822 17.7853C49.9822 17.5837 49.9142 17.4149 49.7781 17.2788V17.2814Z" fill="#8282FF"/>
<path d="M2.16694 3.6377H0.730738C0.570709 3.6377 0.440979 3.76742 0.440979 3.92745V12.6253C0.440979 12.7853 0.570709 12.915 0.730738 12.915H2.16694C2.32697 12.915 2.4567 12.7853 2.4567 12.6253V3.92745C2.4567 3.76742 2.32697 3.6377 2.16694 3.6377Z" fill="white"/>
<path d="M13.0342 12.6251C13.0342 12.7839 12.9032 12.9149 12.7444 12.9149H4.05166C3.89292 12.9149 3.7619 12.7839 3.7619 12.6251V3.93234C3.7619 3.7736 3.89292 3.64258 4.05166 3.64258H12.7444C12.9032 3.64258 13.0342 3.7736 13.0342 3.93234V12.6251ZM5.77762 10.6094C5.77762 10.7681 5.90864 10.8992 6.06738 10.8992H10.7287C10.8875 10.8992 11.0185 10.7681 11.0185 10.6094V5.94805C11.0185 5.78932 10.8875 5.65829 10.7287 5.65829H6.06738C5.90864 5.65829 5.77762 5.78932 5.77762 5.94805V10.6094Z" fill="white"/>
<path d="M12.747 0.31665H4.04916C3.88913 0.31665 3.7594 0.44638 3.7594 0.60641V2.04261C3.7594 2.20264 3.88913 2.33237 4.04916 2.33237H12.747C12.907 2.33237 13.0367 2.20264 13.0367 2.04261V0.60641C13.0367 0.44638 12.907 0.31665 12.747 0.31665Z" fill="#8282FF"/>
<path d="M79.2303 5.05367C80.1223 4.16424 81.2032 3.71826 82.4731 3.71826C82.9241 3.71826 83.3575 3.78125 83.7707 3.90724C84.1839 4.03322 84.5266 4.18692 84.7987 4.36329C85.0709 4.54219 85.3077 4.72108 85.5143 4.9025C85.7184 5.08391 85.8671 5.24013 85.9578 5.36863L86.1014 5.56012L85.4614 6.13208C85.4362 6.08925 85.3984 6.03634 85.3505 5.96831C85.3001 5.90027 85.1842 5.77933 85.0028 5.60548C84.8214 5.43162 84.6224 5.27792 84.4082 5.14186C84.194 5.0058 83.9143 4.88486 83.5666 4.77147C83.2189 4.65809 82.8536 4.60266 82.4731 4.60266C81.4552 4.60266 80.5935 4.95793 79.8955 5.66595C79.1976 6.37397 78.8448 7.2508 78.8448 8.29394C78.8448 9.33707 79.195 10.2139 79.8955 10.9219C80.596 11.6299 81.4552 11.9852 82.4731 11.9852C82.8284 11.9852 83.1685 11.9424 83.491 11.8592C83.8136 11.7761 84.0781 11.6728 84.2872 11.5544C84.4939 11.4359 84.6753 11.32 84.834 11.2066C84.9928 11.0933 85.1036 10.9925 85.1691 10.9043L85.275 10.7808V9.05991H83.2366V8.17048H86.2249V11.0353C86.1921 11.0857 86.1392 11.1512 86.0661 11.2318C85.993 11.3125 85.8394 11.4586 85.6025 11.6703C85.3657 11.8819 85.1137 12.0709 84.8416 12.2347C84.5695 12.401 84.2192 12.5496 83.7909 12.6781C83.3625 12.8091 82.9216 12.8747 82.4706 12.8747C81.1982 12.8747 80.1172 12.4287 79.2278 11.5392C78.3358 10.6498 77.8924 9.56888 77.8924 8.29646C77.8924 7.02404 78.3384 5.94311 79.2278 5.05367H79.2303Z" fill="white"/>
<path d="M94.643 11.8618V12.7513H88.4044V3.8418H94.512V4.73627H89.3618V7.66158H93.494V8.55101H89.3618V11.8618H94.643Z" fill="white"/>
<path d="M103.615 3.8418V12.7513H102.789L97.3214 5.56271V12.7513H96.3639V3.8418H97.1903L102.663 11.0354V3.8418H103.613H103.615Z" fill="white"/>
<path d="M112.346 11.8618V12.7513H106.107V3.8418H112.215V4.73627H107.065V7.66158H111.197V8.55101H107.065V11.8618H112.346Z" fill="white"/>
</g>
<defs>
<clipPath id="clip0_827_1502">
<rect width="111.905" height="20.5276" fill="white" transform="translate(0.440979 0.31665)"/>
</clipPath>
</defs>
</svg>
