<svg width="151" height="29" viewBox="0 0 151 29" fill="none" xmlns="http://www.w3.org/2000/svg">
<g clip-path="url(#clip0_922_1450)">
<path d="M26.1353 13.7718C26.7949 14.4314 27.6211 14.7612 28.6172 14.7612C29.2326 14.7612 29.814 14.632 30.3614 14.3736C30.9088 14.1152 31.3032 13.85 31.548 13.5848L31.9117 13.1938L33.8157 15.2779C33.7715 15.3459 33.7035 15.4343 33.6185 15.5431C33.5301 15.6519 33.3295 15.8491 33.0099 16.1279C32.6903 16.4067 32.3469 16.6549 31.9763 16.8691C31.6058 17.0833 31.1196 17.2771 30.511 17.4505C29.9024 17.6239 29.2734 17.7089 28.6172 17.7089C26.7337 17.7089 25.1323 17.0799 23.82 15.8151C22.5076 14.5538 21.8514 13.0442 21.8514 11.2899C21.8514 9.53551 22.5076 8.02596 23.82 6.76459C25.1323 5.50323 26.7303 4.87085 28.6172 4.87085C29.2666 4.87085 29.8854 4.95585 30.4702 5.12584C31.055 5.29584 31.5412 5.49983 31.9219 5.73442C32.3027 5.97242 32.6359 6.20701 32.9215 6.445C33.2071 6.683 33.4111 6.88359 33.5369 7.05359L33.7307 7.29838L31.7316 9.38252C31.6976 9.33832 31.6534 9.28052 31.5956 9.20912C31.5378 9.13772 31.4086 9.01533 31.2046 8.83513C31.0006 8.65834 30.7898 8.49854 30.5688 8.36255C30.3478 8.22315 30.0588 8.10075 29.7018 7.98856C29.3448 7.87976 28.981 7.82196 28.6138 7.82196C27.6211 7.82196 26.7949 8.15175 26.1319 8.80793C25.4723 9.46411 25.1425 10.2903 25.1425 11.2831C25.1425 12.2758 25.4723 13.102 26.1319 13.765L26.1353 13.7718Z" fill="white"/>
<path d="M35.587 8.17546V5.22095H45.0354V8.17546L39.6601 14.4143H45.2156V17.362H35.3253V14.4143L40.7005 8.17546H35.587Z" fill="white"/>
<path d="M51.4576 6.97553C52.6612 5.77537 54.1198 5.17358 55.8333 5.17358C56.4419 5.17358 57.0267 5.25858 57.5843 5.42858C58.1418 5.59857 58.6042 5.80597 58.9714 6.04396C59.3386 6.28535 59.6582 6.52674 59.937 6.77154C60.2124 7.01633 60.413 7.22712 60.5354 7.40052L60.7292 7.65891L59.8656 8.43069C59.8316 8.37289 59.7806 8.30149 59.716 8.20969C59.648 8.1179 59.4916 7.9547 59.2468 7.72011C59.002 7.48552 58.7334 7.27812 58.4444 7.09453C58.1554 6.91093 57.7781 6.74774 57.3089 6.59474C56.8397 6.44175 56.3467 6.36695 55.8333 6.36695C54.4598 6.36695 53.297 6.84633 52.3552 7.80171C51.4134 8.75708 50.9375 9.94024 50.9375 11.3478C50.9375 12.7554 51.41 13.9385 52.3552 14.8939C53.3004 15.8493 54.4598 16.3287 55.8333 16.3287C56.3467 16.3287 56.8397 16.2573 57.3089 16.1145C57.7781 15.9717 58.169 15.8017 58.4784 15.5977C58.7878 15.3971 59.0598 15.1965 59.2944 14.9993C59.529 14.8021 59.6956 14.6253 59.7976 14.4757L59.9574 14.2649L60.8108 15.0435C60.7666 15.1115 60.6986 15.1999 60.6068 15.3087C60.515 15.4175 60.311 15.6147 59.9948 15.9003C59.6786 16.1859 59.3454 16.4409 58.9918 16.6618C58.6382 16.8862 58.1758 17.0868 57.6047 17.2602C57.0335 17.437 56.4419 17.5254 55.8333 17.5254C54.1164 17.5254 52.6578 16.9236 51.4576 15.7235C50.2541 14.5233 49.6557 13.0648 49.6557 11.3478C49.6557 9.63085 50.2575 8.1723 51.4576 6.97213V6.97553Z" fill="white"/>
<path d="M71.4117 16.162V17.3621H62.9935V5.34009H71.2349V6.54705H64.2855V10.4943H69.8613V11.6945H64.2855V16.162H71.4117Z" fill="white"/>
<path d="M73.666 17.3621V5.34009H74.9579V16.162H81.1355V17.3621H73.666Z" fill="white"/>
<path d="M83.0326 17.3621V5.34009H84.3246V16.162H90.5022V17.3621H83.0326Z" fill="white"/>
<path d="M100.712 8.77361L99.9506 8.02563L97.3224 10.6436L94.6943 8.02563L93.9327 8.77361L96.5677 11.3983L93.9327 14.0231L94.6875 14.7778L97.3224 12.1497L99.9642 14.7778L100.712 14.0231L98.0806 11.3983L100.712 8.77361Z" fill="white"/>
<path d="M24.7686 22.3704C25.5777 22.3704 26.2747 22.656 26.8561 23.2339C27.4375 23.8085 27.7265 24.4919 27.7265 25.2875C27.7265 26.0831 27.4375 26.7664 26.8561 27.341C26.2747 27.9156 25.5811 28.2046 24.7686 28.2046H22.7252V22.3704H24.7686ZM23.6432 23.2033V27.3682H24.7686C25.3363 27.3682 25.8157 27.1676 26.2135 26.763C26.6113 26.3618 26.8085 25.8689 26.8085 25.2841C26.8085 24.6993 26.6113 24.2097 26.2135 23.8051C25.8191 23.4039 25.3363 23.1999 24.7686 23.1999H23.6432V23.2033Z" fill="#8282FF"/>
<path d="M29.406 22.3667H30.3206V28.2009H29.406V22.3667Z" fill="#8282FF"/>
<path d="M34.9138 26.0829C34.8016 25.9605 34.652 25.8687 34.4718 25.7973C34.2916 25.7293 34.091 25.6647 33.8734 25.6103C33.6524 25.5559 33.4349 25.4845 33.2139 25.4063C32.9929 25.3247 32.7957 25.2261 32.6155 25.1139C32.4353 25.0017 32.2891 24.8385 32.1735 24.6277C32.0579 24.4169 32.0035 24.1653 32.0035 23.8695C32.0035 23.4207 32.1769 23.0434 32.5203 22.7408C32.8637 22.4382 33.3295 22.2886 33.921 22.2886C34.1386 22.2886 34.346 22.3158 34.5466 22.3668C34.7472 22.4212 34.9104 22.4824 35.043 22.5538C35.1756 22.6252 35.2912 22.6966 35.3898 22.768C35.4884 22.8394 35.5598 22.9006 35.6074 22.9516L35.672 23.0332L35.0906 23.6179C35.0906 23.6179 35.0634 23.5873 35.043 23.5635C35.0226 23.5363 34.975 23.4955 34.9036 23.4411C34.8322 23.3867 34.754 23.3357 34.6724 23.2915C34.5908 23.2473 34.482 23.2065 34.346 23.1725C34.21 23.1385 34.0706 23.1181 33.921 23.1181C33.6184 23.1181 33.3771 23.1929 33.1935 23.3425C33.0099 23.4921 32.9181 23.6655 32.9181 23.8661C32.9181 24.0463 32.9759 24.1959 33.0881 24.3183C33.2003 24.4407 33.3499 24.5359 33.53 24.6039C33.7102 24.6719 33.9108 24.7365 34.1284 24.7909C34.3494 24.8453 34.567 24.9133 34.788 24.9949C35.009 25.0765 35.2062 25.1717 35.3864 25.2873C35.5666 25.4029 35.7128 25.5627 35.8284 25.7769C35.944 25.9911 35.9984 26.2393 35.9984 26.535C35.9984 27.0484 35.8148 27.47 35.4442 27.7964C35.077 28.1228 34.567 28.286 33.9142 28.286C33.649 28.286 33.394 28.2554 33.1561 28.1908C32.9181 28.1262 32.7175 28.0514 32.5645 27.963C32.4081 27.8746 32.2755 27.7862 32.1633 27.6978C32.0511 27.6094 31.9661 27.5346 31.9151 27.4734L31.8335 27.3714L32.4149 26.79C32.4149 26.79 32.4455 26.8308 32.4693 26.8614C32.4965 26.892 32.5543 26.9464 32.6427 27.0246C32.7345 27.1028 32.8331 27.1708 32.9385 27.2286C33.0439 27.2864 33.1833 27.3408 33.3601 27.3884C33.5334 27.436 33.7204 27.4598 33.9142 27.4598C34.2746 27.4598 34.5602 27.3714 34.7676 27.1946C34.975 27.0178 35.0804 26.8002 35.0804 26.5384C35.0804 26.3583 35.0226 26.2087 34.9104 26.0897L34.9138 26.0829Z" fill="#8282FF"/>
<path d="M41.1969 22.4042C41.4688 22.4824 41.6932 22.5742 41.87 22.6864C42.0468 22.7986 42.2032 22.9074 42.3358 23.0162C42.4684 23.125 42.567 23.2167 42.6282 23.2983L42.7166 23.4105L42.1352 23.9953C42.1182 23.9749 42.0944 23.9443 42.0638 23.9035C42.0332 23.8627 41.9618 23.7913 41.8496 23.6893C41.7374 23.5873 41.6184 23.4989 41.4926 23.4241C41.3634 23.3493 41.2003 23.2813 40.9929 23.2167C40.7889 23.1521 40.5713 23.1215 40.3435 23.1215C39.7383 23.1215 39.2249 23.3323 38.8067 23.7505C38.3851 24.1687 38.1777 24.6821 38.1777 25.2873C38.1777 25.8925 38.3885 26.4059 38.8067 26.824C39.2249 27.2456 39.7383 27.453 40.3469 27.453C40.5747 27.453 40.7923 27.4224 40.9997 27.3578C41.207 27.2932 41.3804 27.2184 41.5164 27.1266C41.6524 27.0382 41.7748 26.9498 41.8768 26.8614C41.9822 26.773 42.0604 26.6982 42.1114 26.637L42.176 26.535L42.7608 27.1198C42.7404 27.1538 42.7064 27.1946 42.6622 27.249C42.618 27.3034 42.5194 27.3952 42.3664 27.5278C42.2134 27.6604 42.0502 27.7794 41.8768 27.8814C41.7034 27.9834 41.479 28.0786 41.2003 28.1602C40.9215 28.2418 40.6359 28.286 40.3435 28.286C39.4697 28.286 38.7387 27.997 38.1471 27.4156C37.5556 26.8342 37.2598 26.1271 37.2598 25.2873C37.2598 24.4475 37.5556 23.7403 38.1471 23.1589C38.7387 22.5776 39.4697 22.2886 40.3435 22.2886C40.6393 22.2886 40.9215 22.326 41.1935 22.4042H41.1969Z" fill="#8282FF"/>
<path d="M44.6613 23.1589C45.2529 22.5776 45.9839 22.2886 46.8542 22.2886C47.7246 22.2886 48.459 22.5776 49.0472 23.1589C49.6354 23.7403 49.9345 24.4475 49.9345 25.2873C49.9345 26.1271 49.6388 26.8342 49.0472 27.4156C48.4556 27.997 47.7246 28.286 46.8542 28.286C45.9839 28.286 45.2529 27.997 44.6613 27.4156C44.0697 26.8342 43.7739 26.1271 43.7739 25.2873C43.7739 24.4475 44.0697 23.7403 44.6613 23.1589ZM45.3175 26.824C45.7357 27.2456 46.2491 27.453 46.8542 27.453C47.4594 27.453 47.9728 27.2422 48.391 26.824C48.8092 26.4025 49.02 25.8925 49.02 25.2873C49.02 24.6821 48.8092 24.1721 48.391 23.7505C47.9728 23.3323 47.4594 23.1215 46.8542 23.1215C46.2491 23.1215 45.7357 23.3323 45.3175 23.7505C44.8993 24.1687 44.6885 24.6821 44.6885 25.2873C44.6885 25.8925 44.8993 26.4059 45.3175 26.824Z" fill="#8282FF"/>
<path d="M50.7029 22.3667H51.6617L53.45 27.0314L55.2452 22.3667H56.2006L53.909 28.2009H52.9945L50.6995 22.3667H50.7029Z" fill="#8282FF"/>
<path d="M61.8376 27.368V28.2009H57.632V22.3667H61.756V23.1997H58.5465V24.7398H61.0897V25.5728H58.5465V27.3612H61.8376V27.368Z" fill="#8282FF"/>
<path d="M63.4356 22.3667H65.8937C66.4343 22.3667 66.8797 22.5401 67.2367 22.8835C67.5937 23.2269 67.7705 23.6553 67.7705 24.1618C67.7705 24.3998 67.7297 24.6242 67.6481 24.8316C67.5665 25.039 67.4679 25.2022 67.3557 25.3212C67.2435 25.4402 67.1279 25.5456 67.0157 25.634C66.9035 25.7224 66.8049 25.7836 66.7233 25.8176L66.6043 25.872L67.9371 28.2009H66.9375L65.6897 25.9502H64.357V28.2009H63.4424V22.3667H63.4356ZM66.5737 23.4751C66.3901 23.2915 66.1623 23.1997 65.8937 23.1997H64.3536V25.1138H65.8937C66.1657 25.1138 66.3935 25.022 66.5737 24.8384C66.7573 24.6548 66.8491 24.427 66.8491 24.155C66.8491 23.8831 66.7573 23.6553 66.5737 23.4717V23.4751Z" fill="#8282FF"/>
<path d="M2.32918 5.0647H0.391233C0.175296 5.0647 0.000244141 5.23975 0.000244141 5.45569V17.1921C0.000244141 17.4081 0.175296 17.5831 0.391233 17.5831H2.32918C2.54511 17.5831 2.72016 17.4081 2.72016 17.1921V5.45569C2.72016 5.23975 2.54511 5.0647 2.32918 5.0647Z" fill="white"/>
<path d="M16.993 17.1922C16.993 17.4064 16.8162 17.5832 16.602 17.5832H4.87237C4.65818 17.5832 4.48138 17.4064 4.48138 17.1922V5.46252C4.48138 5.24833 4.65818 5.07153 4.87237 5.07153H16.602C16.8162 5.07153 16.993 5.24833 16.993 5.46252V17.1922ZM7.2013 14.4723C7.2013 14.6865 7.3781 14.8632 7.59229 14.8632H13.8821C14.0963 14.8632 14.2731 14.6865 14.2731 14.4723V8.18244C14.2731 7.96825 14.0963 7.79145 13.8821 7.79145H7.59229C7.3781 7.79145 7.2013 7.96825 7.2013 8.18244V14.4723Z" fill="white"/>
<path d="M16.6055 0.583496H4.86902C4.65308 0.583496 4.47803 0.758548 4.47803 0.974485V2.91243C4.47803 3.12836 4.65308 3.30342 4.86902 3.30342H16.6055C16.8214 3.30342 16.9965 3.12836 16.9965 2.91243V0.974485C16.9965 0.758548 16.8214 0.583496 16.6055 0.583496Z" fill="#8282FF"/>
<path d="M106.315 6.97553C107.519 5.77537 108.977 5.17358 110.691 5.17358C111.299 5.17358 111.884 5.25858 112.442 5.42858C112.999 5.59857 113.462 5.80597 113.829 6.04396C114.196 6.28535 114.516 6.52674 114.795 6.77154C115.07 7.01633 115.271 7.22712 115.393 7.40052L115.587 7.65891L114.723 8.43069C114.689 8.37289 114.638 8.30149 114.574 8.20969C114.506 8.1179 114.349 7.9547 114.104 7.72011C113.86 7.48552 113.591 7.27812 113.302 7.09453C113.013 6.91093 112.636 6.74774 112.166 6.59474C111.697 6.44175 111.204 6.36695 110.691 6.36695C109.317 6.36695 108.155 6.84633 107.213 7.80171C106.271 8.75708 105.795 9.94024 105.795 11.3478C105.795 12.7554 106.268 13.9385 107.213 14.8939C108.158 15.8493 109.317 16.3287 110.691 16.3287C111.17 16.3287 111.629 16.2709 112.064 16.1587C112.5 16.0465 112.857 15.9071 113.139 15.7473C113.418 15.5875 113.662 15.4311 113.877 15.2781C114.091 15.1251 114.24 14.9891 114.329 14.8701L114.472 14.7035V12.3814H111.721V11.1812H115.753V15.0469C115.709 15.1149 115.638 15.2033 115.539 15.3121C115.44 15.4209 115.233 15.6181 114.914 15.9037C114.594 16.1893 114.254 16.4443 113.887 16.6652C113.52 16.8896 113.047 17.0902 112.469 17.2636C111.891 17.4404 111.296 17.5288 110.687 17.5288C108.97 17.5288 107.512 16.927 106.312 15.7269C105.108 14.5267 104.51 13.0682 104.51 11.3512C104.51 9.63425 105.112 8.1757 106.312 6.97553H106.315Z" fill="white"/>
<path d="M127.112 16.162V17.3621H118.694V5.34009H126.936V6.54705H119.986V10.4943H125.562V11.6945H119.986V16.162H127.112Z" fill="white"/>
<path d="M139.219 5.34009V17.3621H138.104L130.726 7.66222V17.3621H129.434V5.34009H130.55L137.934 15.0468V5.34009H139.216H139.219Z" fill="white"/>
<path d="M151 16.162V17.3621H142.582V5.34009H150.823V6.54705H143.874V10.4943H149.45V11.6945H143.874V16.162H151Z" fill="white"/>
</g>
<defs>
<clipPath id="clip0_922_1450">
<rect width="151" height="27.699" fill="white" transform="translate(0.000244141 0.583496)"/>
</clipPath>
</defs>
</svg>
