<svg width="12" height="12" viewBox="0 0 12 12" fill="none" xmlns="http://www.w3.org/2000/svg">
<path d="M6 12C9.28995 12 12 9.28551 12 5.99713C12 2.70875 9.28421 0 6 0C2.71005 0 0 2.70875 0 5.99713C0 9.28551 2.71005 12 6 12ZM6 10.6514C3.42201 10.6514 1.35502 8.57389 1.35502 5.99713C1.35502 3.42037 3.41627 1.34864 6 1.34864C8.57799 1.34864 10.6507 3.42037 10.6565 5.99713C10.6565 8.57389 8.57799 10.6514 6 10.6514ZM5.8622 7.10473C6.20096 7.10473 6.42488 6.92109 6.45359 6.68006C6.45933 6.6571 6.45933 6.62841 6.46507 6.61119C6.49378 6.33572 6.71196 6.1406 7.0622 5.91679C7.63636 5.54376 7.96938 5.21664 7.96938 4.57389C7.96938 3.62123 7.10239 3.04735 6.04593 3.04735C5.06411 3.04735 4.38086 3.47776 4.18565 4.02296C4.14545 4.12626 4.12249 4.22956 4.12249 4.33859C4.12249 4.63128 4.35215 4.83214 4.67368 4.83214C5.01818 4.83214 5.11579 4.65997 5.27655 4.48207C5.46029 4.21808 5.67847 4.06887 5.98277 4.06887C6.38469 4.06887 6.64306 4.29842 6.64306 4.64275C6.64306 4.96413 6.40191 5.14778 5.9311 5.47489C5.52344 5.7561 5.24211 6.04304 5.24211 6.51937V6.57676C5.24211 6.92683 5.46029 7.10473 5.8622 7.10473ZM5.85646 8.90674C6.25837 8.90674 6.57416 8.63702 6.57416 8.24677C6.57416 7.85653 6.25837 7.5868 5.85646 7.5868C5.45455 7.5868 5.13301 7.85653 5.13301 8.24677C5.13301 8.63128 5.45455 8.90674 5.85646 8.90674Z" fill="black"/>
</svg>
