<svg width="12" height="12" viewBox="0 0 12 12" fill="none" xmlns="http://www.w3.org/2000/svg">
<path d="M12 2C12 2.55228 11.5523 3 11 3C10.6299 3 10.3067 2.7989 10.1338 2.5H7V5.5H10.1338C10.3067 5.2011 10.6299 5 11 5C11.5523 5 12 5.44772 12 6C12 6.55228 11.5523 7 11 7C10.6299 7 10.3067 6.7989 10.1338 6.5L6.88844 6.5C6.82888 6.50003 6.75775 6.50005 6.69508 6.49493C6.62248 6.489 6.51848 6.47378 6.40951 6.41825C6.26839 6.34635 6.15365 6.23161 6.08175 6.09049C6.02622 5.98152 6.011 5.87752 6.00507 5.80492C5.99995 5.74225 5.99997 5.67112 6 5.61156L6 4.5H4V9.5H10.1338C10.3067 9.2011 10.6299 9 11 9C11.5523 9 12 9.44771 12 10C12 10.5523 11.5523 11 11 11C10.6299 11 10.3067 10.7989 10.1338 10.5L3.88843 10.5C3.82888 10.5 3.75772 10.5001 3.69508 10.4949C3.62248 10.489 3.51848 10.4738 3.40951 10.4183C3.26839 10.3463 3.15365 10.2316 3.08175 10.0905C3.02622 9.98152 3.011 9.87752 3.00507 9.80492C2.99995 9.74226 2.99997 9.67113 3 9.61157L3 7.5H1.86622C1.69331 7.7989 1.37014 8 1 8C0.447715 8 0 7.55228 0 7C0 6.44772 0.447715 6 1 6C1.37014 6 1.69331 6.2011 1.86622 6.5H3L3 4.38843C2.99997 4.32887 2.99995 4.25774 3.00507 4.19508C3.011 4.12248 3.02622 4.01848 3.08175 3.90951C3.15365 3.76839 3.26839 3.65365 3.40951 3.58175C3.51848 3.52622 3.62248 3.511 3.69508 3.50507C3.75774 3.49995 3.82887 3.49997 3.88843 3.5L6 3.5L6 2.38844C5.99997 2.32888 5.99995 2.25775 6.00507 2.19508C6.011 2.12248 6.02622 2.01848 6.08175 1.90951C6.15365 1.76839 6.26839 1.65365 6.40951 1.58175C6.51848 1.52622 6.62248 1.511 6.69508 1.50507C6.75774 1.49995 6.82887 1.49997 6.88843 1.5L10.1338 1.5C10.3067 1.2011 10.6299 1 11 1C11.5523 1 12 1.44772 12 2Z" fill="#767676"/>
</svg>
