<svg width="16" height="16" viewBox="0 0 16 16" fill="none" xmlns="http://www.w3.org/2000/svg">
<path fill-rule="evenodd" clip-rule="evenodd" d="M6.87859 0.710843L6.54638 1.04305C6.42845 1.16098 6.36948 1.21995 6.29954 1.25559C6.23766 1.28712 6.16984 1.30529 6.10048 1.30893C6.0221 1.31303 5.94155 1.29145 5.78045 1.24828L5.3268 1.12673C4.79059 0.983052 4.52249 0.911215 4.28972 0.96069C4.08498 1.00421 3.89927 1.11143 3.7592 1.26699C3.59997 1.44383 3.52814 1.71193 3.38446 2.24814L3.26287 2.70192C3.2197 2.86302 3.19812 2.94357 3.15537 3.0094C3.11754 3.06765 3.06789 3.1173 3.00965 3.15512C2.94381 3.19788 2.86326 3.21946 2.70216 3.26263L2.24814 3.38428C1.71194 3.52796 1.44383 3.59979 1.26699 3.75902C1.11144 3.89909 1.00422 4.0848 0.960697 4.28954C0.911221 4.52231 0.983059 4.79041 1.12673 5.32662L1.24833 5.7804C1.29149 5.9415 1.31308 6.02205 1.30897 6.10044C1.30533 6.1698 1.28716 6.23762 1.25563 6.2995C1.21999 6.36944 1.16103 6.42841 1.04309 6.54634L0.710843 6.87859C0.318313 7.27112 0.122048 7.46739 0.0485125 7.6937C-0.0161708 7.89278 -0.0161708 8.10722 0.0485125 8.3063C0.122048 8.53261 0.318313 8.72888 0.710843 9.12141L1.04324 9.45381C1.16117 9.57174 1.22014 9.63071 1.25578 9.70065C1.28731 9.76253 1.30548 9.83035 1.30912 9.89971C1.31322 9.97809 1.29164 10.0586 1.24847 10.2197L1.12691 10.6734C0.983231 11.2096 0.911393 11.4777 0.960869 11.7105C1.00439 11.9153 1.11161 12.101 1.26716 12.241C1.44401 12.4003 1.71211 12.4721 2.24832 12.6158L2.70196 12.7373C2.86305 12.7805 2.94362 12.8021 3.00945 12.8448C3.06769 12.8827 3.11734 12.9323 3.15517 12.9906C3.19792 13.0564 3.2195 13.1369 3.26267 13.298L3.38429 13.7519C3.52796 14.2881 3.5998 14.5562 3.75903 14.7331C3.89909 14.8886 4.08481 14.9958 4.28955 15.0394C4.52231 15.0888 4.79041 15.017 5.32661 14.8733L5.78045 14.7517C5.94155 14.7086 6.0221 14.687 6.10049 14.6911C6.16985 14.6947 6.23767 14.7129 6.29955 14.7444C6.36949 14.7801 6.42846 14.839 6.54639 14.957L6.87859 15.2892C7.27112 15.6817 7.46739 15.878 7.6937 15.9515C7.89278 16.0162 8.10722 16.0162 8.3063 15.9515C8.53261 15.878 8.72888 15.6817 9.12141 15.2892L9.45366 14.9569C9.57159 14.839 9.63056 14.78 9.7005 14.7444C9.76238 14.7128 9.8302 14.6947 9.89956 14.691C9.97795 14.6869 10.0585 14.7085 10.2196 14.7517L10.6736 14.8733C11.2098 15.017 11.4779 15.0888 11.7107 15.0394C11.9154 14.9958 12.1011 14.8886 12.2412 14.7331C12.4004 14.5562 12.4723 14.2881 12.616 13.7519L12.7376 13.298C12.7807 13.1369 12.8023 13.0564 12.8451 12.9906C12.8829 12.9323 12.9325 12.8827 12.9908 12.8448C13.0566 12.8021 13.1372 12.7805 13.2983 12.7373L13.7519 12.6158C14.2881 12.4721 14.5562 12.4003 14.7331 12.241C14.8886 12.101 14.9959 11.9153 15.0394 11.7105C15.0888 11.4777 15.017 11.2096 14.8733 10.6734L14.7517 10.2196C14.7086 10.0585 14.687 9.9779 14.6911 9.89952C14.6947 9.83016 14.7129 9.76234 14.7444 9.70046C14.78 9.63052 14.839 9.57155 14.9569 9.45362L15.2892 9.12141C15.6817 8.72888 15.878 8.53261 15.9515 8.3063C16.0162 8.10722 16.0162 7.89278 15.9515 7.6937C15.878 7.46739 15.6817 7.27112 15.2892 6.87859L14.9571 6.54653C14.8392 6.42861 14.7802 6.36963 14.7446 6.29969C14.713 6.23781 14.6949 6.16999 14.6912 6.10063C14.6871 6.02224 14.7087 5.94169 14.7519 5.78059L14.8735 5.32662C15.0172 4.79041 15.089 4.52231 15.0395 4.28955C14.996 4.0848 14.8888 3.89909 14.7332 3.75902C14.5564 3.59979 14.2883 3.52796 13.7521 3.38428L13.2981 3.26263C13.137 3.21946 13.0564 3.19788 12.9906 3.15513C12.9323 3.1173 12.8827 3.06765 12.8449 3.0094C12.8021 2.94358 12.7805 2.86303 12.7374 2.70194L12.6158 2.24814C12.4721 1.71193 12.4003 1.44383 12.241 1.26699C12.101 1.11143 11.9153 1.00421 11.7105 0.96069C11.4778 0.911215 11.2097 0.983052 10.6734 1.12673L10.2196 1.24833C10.0585 1.2915 9.97795 1.31308 9.89957 1.30898C9.83021 1.30534 9.76239 1.28717 9.70051 1.25564C9.63057 1.22 9.5716 1.16104 9.45367 1.0431L9.1214 0.710836C8.72888 0.318317 8.53261 0.122047 8.3063 0.0485125C8.10722 -0.0161708 7.89278 -0.0161708 7.6937 0.0485125C7.46739 0.122047 7.27112 0.318315 6.87859 0.710843ZM11.6906 5.2293C11.5738 4.92641 11.2784 4.6987 10.9272 4.76003L10.9253 4.76036C10.7497 4.79239 10.6013 4.893 10.4977 5.03009L7.11837 9.30378L5.4839 7.58132C5.30199 7.35535 4.99486 7.25814 4.70994 7.37784C4.44251 7.49019 4.28475 7.7556 4.25521 8.0302C4.22661 8.29598 4.31594 8.57774 4.51982 8.75815L6.68038 11.0366C6.97523 11.3451 7.43808 11.3125 7.69856 10.9839L11.5656 6.09203C11.7581 5.85445 11.7998 5.51259 11.6906 5.2293Z" fill="#3CB371"/>
</svg>
