<svg width="24" height="24" viewBox="0 0 24 24" fill="none" xmlns="http://www.w3.org/2000/svg">
<path fill-rule="evenodd" clip-rule="evenodd" d="M8.44444 9.15556C8.44444 8.90664 8.44444 8.78219 8.49289 8.68712C8.5355 8.60349 8.60349 8.5355 8.68712 8.49289C8.78219 8.44444 8.90664 8.44444 9.15556 8.44444H19.2889C19.5378 8.44444 19.6623 8.44444 19.7573 8.49289C19.841 8.5355 19.9089 8.60349 19.9516 8.68712C20 8.78219 20 8.90664 20 9.15556V19.2889C20 19.5378 20 19.6623 19.9516 19.7573C19.9089 19.841 19.841 19.9089 19.7573 19.9516C19.6623 20 19.5378 20 19.2889 20H9.15556C8.90664 20 8.78219 20 8.68712 19.9516C8.60349 19.9089 8.5355 19.841 8.49289 19.7573C8.44444 19.6623 8.44444 19.5378 8.44444 19.2889V9.15556ZM17.3333 11.1111H11.1111V17.3333H17.3333V11.1111Z" fill="black"/>
<path d="M4 9.15556C4 8.90664 4 8.78219 4.04844 8.68712C4.09105 8.60349 4.15904 8.5355 4.24267 8.49289C4.33774 8.44444 4.4622 8.44444 4.71111 8.44444H5.95556C6.20447 8.44444 6.32892 8.44444 6.424 8.49289C6.50762 8.5355 6.57561 8.60349 6.61823 8.68712C6.66667 8.78219 6.66667 8.90664 6.66667 9.15556V19.2889C6.66667 19.5378 6.66667 19.6623 6.61823 19.7573C6.57561 19.841 6.50762 19.9089 6.424 19.9516C6.32892 20 6.20447 20 5.95556 20H4.71111C4.4622 20 4.33774 20 4.24267 19.9516C4.15904 19.9089 4.09105 19.841 4.04844 19.7573C4 19.6623 4 19.5378 4 19.2889V9.15556Z" fill="black"/>
<path d="M8.44444 4.71111C8.44444 4.4622 8.44444 4.33774 8.49289 4.24267C8.5355 4.15904 8.60349 4.09105 8.68712 4.04844C8.78219 4 8.90664 4 9.15556 4H19.2889C19.5378 4 19.6623 4 19.7573 4.04844C19.841 4.09105 19.9089 4.15904 19.9516 4.24267C20 4.33774 20 4.4622 20 4.71111V5.95556C20 6.20447 20 6.32892 19.9516 6.424C19.9089 6.50762 19.841 6.57561 19.7573 6.61823C19.6623 6.66667 19.5378 6.66667 19.2889 6.66667H9.15556C8.90664 6.66667 8.78219 6.66667 8.68712 6.61823C8.60349 6.57561 8.5355 6.50762 8.49289 6.424C8.44444 6.32892 8.44444 6.20447 8.44444 5.95556V4.71111Z" fill="black"/>
</svg>
