<svg xmlns="http://www.w3.org/2000/svg" width="16" height="16" fill="#767676"
  xmlns:v="https://vecta.io/nano">
  <path d="M14.333 13c0 .736-.597 1.333-1.333 1.333s-1.333-.597-1.333-1.333.597-1.333 1.333-1.333 1.333.597 1.333 1.333zM8 9.333c0 .736-.597 1.333-1.333 1.333s-1.333-.597-1.333-1.333S5.93 8 6.667 8 8 8.597 8 9.333zM10.667 12c0-.736-.597-1.333-1.333-1.333S8 11.264 8 12s.597 1.333 1.333 1.333 1.333-.597 1.333-1.333zM12 14.667c0-.736-.597-1.333-1.333-1.333s-1.333.597-1.333 1.333S9.93 16 10.667 16 12 15.403 12 14.667zM10.667 8c0-.736-.597-1.333-1.333-1.333S8 7.264 8 8s.597 1.333 1.333 1.333S10.667 8.736 10.667 8zm2.666 1.333C13.333 8.597 12.736 8 12 8s-1.333.597-1.333 1.333.597 1.333 1.333 1.333 1.333-.597 1.333-1.333z"/>
  <path d="M16 9.333C16 8.597 15.403 8 14.667 8s-1.333.597-1.333 1.333.597 1.333 1.333 1.333S16 10.07 16 9.333zm-8 1.334c0-.736-.597-1.333-1.333-1.333s-1.333.597-1.333 1.333S5.93 12 6.667 12 8 11.403 8 10.667z"/>
  <path d="M14.667 10.667c0-.736-.597-1.333-1.333-1.333S12 9.93 12 10.667 12.597 12 13.333 12s1.333-.597 1.333-1.333zm-1.334-4C13.333 7.403 12.736 8 12 8s-1.333-.597-1.333-1.333.597-1.333 1.333-1.333 1.333.597 1.333 1.333zm-2.666-4C10.667 3.403 10.07 4 9.333 4S8 3.403 8 2.667s.597-1.333 1.333-1.333 1.333.597 1.333 1.333zm-1.334 4C9.333 7.403 8.736 8 8 8s-1.333-.597-1.333-1.333S7.264 5.333 8 5.333s1.333.597 1.333 1.333zM2.667 8c0 .736-.597 1.333-1.333 1.333S0 8.736 0 8s.597-1.333 1.333-1.333S2.667 7.264 2.667 8zm4-2.667c0 .736-.597 1.333-1.333 1.333S4 6.07 4 5.333 4.597 4 5.333 4s1.333.597 1.333 1.333z"/>
  <path d="M10.667 4c0 .736-.597 1.333-1.333 1.333S8 4.736 8 4s.597-1.333 1.333-1.333 1.333.597 1.333 1.333zM12 6.667C12 7.403 11.403 8 10.667 8s-1.333-.597-1.333-1.333.597-1.333 1.333-1.333S12 5.93 12 6.667zM3.667 7c0 .736-.597 1.333-1.333 1.333S1 7.736 1 7s.597-1.333 1.333-1.333S3.667 6.264 3.667 7zm3-4.333C6.667 3.403 6.07 4 5.333 4S4 3.403 4 2.667s.597-1.333 1.333-1.333 1.333.597 1.333 1.333z"/>
  <path d="M12 2.667C12 3.403 11.403 4 10.667 4s-1.333-.597-1.333-1.333.597-1.333 1.333-1.333S12 1.93 12 2.667zM14.667 4c0 .736-.597 1.333-1.333 1.333S12 4.736 12 4s.597-1.333 1.333-1.333 1.333.597 1.333 1.333zM5.333 1.333c0 .736-.597 1.333-1.333 1.333S2.667 2.07 2.667 1.333 3.264 0 4 0s1.333.597 1.333 1.333zM12 10.667c0 .736-.597 1.333-1.333 1.333s-1.333-.597-1.333-1.333.597-1.333 1.333-1.333S12 9.93 12 10.667zM4 12c0 .736-.597 1.333-1.333 1.333S1.333 12.736 1.333 12s.597-1.333 1.333-1.333S4 11.264 4 12zm2.667 1.333c0 .736-.597 1.333-1.333 1.333S4 14.07 4 13.333 4.597 12 5.333 12s1.333.597 1.333 1.333z"/>
  <path d="M5.333 10.667C5.333 11.403 4.736 12 4 12s-1.333-.597-1.333-1.333S3.264 9.333 4 9.333s1.333.597 1.333 1.333zM8 4c0 .736-.597 1.333-1.333 1.333S5.333 4.736 5.333 4s.597-1.333 1.333-1.333S8 3.264 8 4z"/>
</svg>
