<svg width="10" height="10" viewBox="0 0 10 10" fill="none" xmlns="http://www.w3.org/2000/svg">
<path fill-rule="evenodd" clip-rule="evenodd" d="M9 5C9 7.20914 7.20914 9 5 9C2.79086 9 1 7.20914 1 5C1 2.79086 2.79086 1 5 1C7.20914 1 9 2.79086 9 5ZM10 5C10 7.76142 7.76142 10 5 10C2.23858 10 0 7.76142 0 5C0 2.23858 2.23858 0 5 0C7.76142 0 10 2.23858 10 5ZM4.35713 3.0357C4.35713 2.68066 4.64494 2.39284 4.99998 2.39284C5.35502 2.39284 5.64284 2.68066 5.64284 3.0357C5.64284 3.39074 5.35502 3.67855 4.99998 3.67855C4.64494 3.67855 4.35713 3.39074 4.35713 3.0357ZM5.57134 7.0357C5.57134 7.35129 5.3155 7.60713 4.99991 7.60713C4.68432 7.60713 4.42848 7.35129 4.42848 7.0357V4.96427C4.42848 4.64868 4.68432 4.39284 4.99991 4.39284C5.3155 4.39284 5.57134 4.64868 5.57134 4.96427L5.57134 7.0357Z" fill="#767676"/>
</svg>
